<svg xmlns="http://www.w3.org/2000/svg" xmlns:xlink="http://www.w3.org/1999/xlink" width="34" height="23" viewBox="0 0 34 23">
  <defs>
    <clipPath id="clip-icon-quote">
      <rect width="34" height="23"/>
    </clipPath>
  </defs>
  <g id="icon-quote" clip-path="url(#clip-icon-quote)">
    <path id="icon-quote-2" data-name="icon-quote" d="M9.631.144l1.476.894a.5.5,0,0,1,.128.747c-2.155,2.654-4.113,5.531-4.113,9.1,2.942,0,5.973,2.423,5.973,5.526a6.24,6.24,0,0,1-6.969,6.531A6.827,6.827,0,0,1,.154,16.911C-.826,10,2.986,3.774,8.6.152A.973.973,0,0,1,9.631.144Zm20.905,0,1.476.894a.5.5,0,0,1,.128.747c-2.155,2.654-4.113,5.531-4.113,9.1,2.942,0,5.973,2.423,5.973,5.526a6.24,6.24,0,0,1-6.969,6.531,6.827,6.827,0,0,1-5.973-6.028C20.079,10,23.892,3.774,29.5.152A.973.973,0,0,1,30.536.144Z" fill="#6eff00" fill-rule="evenodd"/>
  </g>
</svg>
