<svg xmlns="http://www.w3.org/2000/svg" xmlns:xlink="http://www.w3.org/1999/xlink" width="705" height="565" viewBox="0 0 705 565">
  <defs>
    <clipPath id="clip-project-1">
      <rect width="705" height="565"/>
    </clipPath>
  </defs>
  <g id="project-1" clip-path="url(#clip-project-1)">
    <g id="internet" transform="translate(97)">
      <g id="Group_1" data-name="Group 1" transform="translate(0 27)">
        <path id="Path_1" data-name="Path 1" d="M256,0C114.62,0,0,114.62,0,256S114.62,512,256,512,512,397.38,512,256,397.38,0,256,0ZM172.211,41.609c-24.934,27.119-44.68,66.125-56.755,111.992H49.749A231.928,231.928,0,0,1,172.211,41.609ZM25.6,256a227.894,227.894,0,0,1,13.662-76.8h70.494a404.835,404.835,0,0,0-.009,153.6H39.262A227.889,227.889,0,0,1,25.6,256ZM49.749,358.4h65.707c12.083,45.867,31.821,84.872,56.755,111.991A231.93,231.93,0,0,1,49.749,358.4ZM243.2,485.188c-43.81-8.252-81.877-58.24-101.359-126.788H243.2Zm0-152.388H135.74a384.893,384.893,0,0,1,0-153.6H243.2Zm0-179.2H141.841C161.323,85.052,199.39,35.063,243.2,26.812Zm219.051,0H396.544c-12.083-45.867-31.821-84.873-56.755-111.992A231.936,231.936,0,0,1,462.251,153.6ZM268.8,26.812c43.81,8.252,81.877,58.24,101.359,126.788H268.8Zm0,152.388H376.26A385.428,385.428,0,0,1,384,256a385.43,385.43,0,0,1-7.74,76.8H268.8Zm0,305.988V358.4H370.159C350.677,426.948,312.61,476.937,268.8,485.188Zm70.989-14.8c24.934-27.127,44.672-66.125,56.755-111.991h65.707A231.93,231.93,0,0,1,339.789,470.391ZM402.244,332.8A411.572,411.572,0,0,0,409.6,256a412.345,412.345,0,0,0-7.347-76.8h70.494a222.763,222.763,0,0,1-.009,153.6Z" fill="#5eff00"/>
      </g>
    </g>
  </g>
</svg>
